<svg width="1441" height="1344" viewBox="0 0 1441 1344" fill="none" xmlns="http://www.w3.org/2000/svg">
<g opacity="0.4">
<rect width="1440" height="1344" transform="translate(0.227051)" fill="url(#paint0_linear_432_9109)"/>
<rect x="0.227051" width="95" height="95" rx="1.90126" fill="#111111"/>
<rect x="96.2283" width="95" height="95" rx="1.90126" fill="#111111"/>
<rect x="192.229" width="95" height="95" rx="1.90126" fill="#111111"/>
<rect x="288.23" width="95" height="95" rx="1.90126" fill="#111111"/>
<rect x="384.232" width="95" height="95" rx="1.90126" fill="#111111"/>
<rect x="480.233" width="95" height="95" rx="1.90126" fill="#111111"/>
<rect x="576.234" width="95" height="95" rx="1.90126" fill="#111111"/>
<rect x="672.235" width="95" height="95" rx="1.90126" fill="#111111"/>
<rect x="768.236" width="95" height="95" rx="1.90126" fill="#111111"/>
<rect x="864.237" width="95" height="95" rx="1.90126" fill="#111111"/>
<rect x="960.238" width="95" height="95" rx="1.90126" fill="#111111"/>
<rect x="1056.24" width="95" height="95" rx="1.90126" fill="#111111"/>
<rect x="1152.24" width="95" height="95" rx="1.90126" fill="#111111"/>
<rect x="1248.24" width="95" height="95" rx="1.90126" fill="#111111"/>
<rect x="1344.24" width="95" height="95" rx="1.90126" fill="#111111"/>
<rect x="0.227051" y="96.0011" width="95" height="95" rx="1.90126" fill="#111111"/>
<rect x="96.2283" y="96.0011" width="95" height="95" rx="1.90126" fill="#111111"/>
<rect x="192.229" y="96.0011" width="95" height="95" rx="1.90126" fill="#111111"/>
<rect x="288.23" y="96.0011" width="95" height="95" rx="1.90126" fill="#111111"/>
<rect x="384.232" y="96.0011" width="95" height="95" rx="1.90126" fill="#111111"/>
<rect x="480.233" y="96.0011" width="95" height="95" rx="1.90126" fill="#111111"/>
<rect x="576.234" y="96.0011" width="95" height="95" rx="1.90126" fill="#111111"/>
<rect x="672.235" y="96.0011" width="95" height="95" rx="1.90126" fill="#111111"/>
<rect x="768.236" y="96.0011" width="95" height="95" rx="1.90126" fill="#111111"/>
<rect x="864.237" y="96.0011" width="95" height="95" rx="1.90126" fill="#111111"/>
<rect x="960.238" y="96.0011" width="95" height="95" rx="1.90126" fill="#111111"/>
<rect x="1056.24" y="96.0011" width="95" height="95" rx="1.90126" fill="#111111"/>
<rect x="1152.24" y="96.0011" width="95" height="95" rx="1.90126" fill="#111111"/>
<rect x="1248.24" y="96.0011" width="95" height="95" rx="1.90126" fill="#111111"/>
<rect x="1344.24" y="96.0011" width="95" height="95" rx="1.90126" fill="#111111"/>
<rect x="0.227051" y="192.002" width="95" height="95" rx="1.90126" fill="#111111"/>
<rect x="96.2283" y="192.002" width="95" height="95" rx="1.90126" fill="#111111"/>
<rect x="192.229" y="192.002" width="95" height="95" rx="1.90126" fill="#111111"/>
<rect x="288.23" y="192.002" width="95" height="95" rx="1.90126" fill="#111111"/>
<rect x="384.232" y="192.002" width="95" height="95" rx="1.90126" fill="#111111"/>
<rect x="480.233" y="192.002" width="95" height="95" rx="1.90126" fill="#111111"/>
<rect x="576.234" y="192.002" width="95" height="95" rx="1.90126" fill="#111111"/>
<rect x="672.235" y="192.002" width="95" height="95" rx="1.90126" fill="#111111"/>
<rect x="768.236" y="192.002" width="95" height="95" rx="1.90126" fill="#111111"/>
<rect x="864.237" y="192.002" width="95" height="95" rx="1.90126" fill="#111111"/>
<rect x="960.238" y="192.002" width="95" height="95" rx="1.90126" fill="#111111"/>
<rect x="1056.24" y="192.002" width="95" height="95" rx="1.90126" fill="#111111"/>
<rect x="1152.24" y="192.002" width="95" height="95" rx="1.90126" fill="#111111"/>
<rect x="1248.24" y="192.002" width="95" height="95" rx="1.90126" fill="#111111"/>
<rect x="1344.24" y="192.002" width="95" height="95" rx="1.90126" fill="#111111"/>
<rect x="0.227051" y="288.003" width="95" height="95" rx="1.90126" fill="#111111"/>
<rect x="96.2283" y="288.003" width="95" height="95" rx="1.90126" fill="#111111"/>
<rect x="192.229" y="288.003" width="95" height="95" rx="1.90126" fill="#111111"/>
<rect x="288.23" y="288.003" width="95" height="95" rx="1.90126" fill="#111111"/>
<rect x="384.232" y="288.003" width="95" height="95" rx="1.90126" fill="#111111"/>
<rect x="480.233" y="288.003" width="95" height="95" rx="1.90126" fill="#111111"/>
<rect x="576.234" y="288.003" width="95" height="95" rx="1.90126" fill="#111111"/>
<rect x="672.235" y="288.003" width="95" height="95" rx="1.90126" fill="#111111"/>
<rect x="768.236" y="288.003" width="95" height="95" rx="1.90126" fill="#111111"/>
<rect x="864.237" y="288.003" width="95" height="95" rx="1.90126" fill="#111111"/>
<rect x="960.238" y="288.003" width="95" height="95" rx="1.90126" fill="#111111"/>
<rect x="1056.24" y="288.003" width="95" height="95" rx="1.90126" fill="#111111"/>
<rect x="1152.24" y="288.003" width="95" height="95" rx="1.90126" fill="#111111"/>
<rect x="1248.24" y="288.003" width="95" height="95" rx="1.90126" fill="#111111"/>
<rect x="1344.24" y="288.003" width="95" height="95" rx="1.90126" fill="#111111"/>
<rect x="0.227051" y="384.005" width="95" height="95" rx="1.90126" fill="#111111"/>
<rect x="96.2283" y="384.005" width="95" height="95" rx="1.90126" fill="#111111"/>
<rect x="192.229" y="384.005" width="95" height="95" rx="1.90126" fill="#111111"/>
<rect x="288.23" y="384.005" width="95" height="95" rx="1.90126" fill="#111111"/>
<rect x="384.232" y="384.005" width="95" height="95" rx="1.90126" fill="#111111"/>
<rect x="480.233" y="384.005" width="95" height="95" rx="1.90126" fill="#111111"/>
<rect x="576.234" y="384.005" width="95" height="95" rx="1.90126" fill="#111111"/>
<rect x="672.235" y="384.005" width="95" height="95" rx="1.90126" fill="#111111"/>
<rect x="768.236" y="384.005" width="95" height="95" rx="1.90126" fill="#111111"/>
<rect x="864.237" y="384.005" width="95" height="95" rx="1.90126" fill="#111111"/>
<rect x="960.238" y="384.005" width="95" height="95" rx="1.90126" fill="#111111"/>
<rect x="1056.24" y="384.005" width="95" height="95" rx="1.90126" fill="#111111"/>
<rect x="1152.24" y="384.005" width="95" height="95" rx="1.90126" fill="#111111"/>
<rect x="1248.24" y="384.005" width="95" height="95" rx="1.90126" fill="#111111"/>
<rect x="1344.24" y="384.005" width="95" height="95" rx="1.90126" fill="#111111"/>
<rect x="0.227051" y="480.006" width="95" height="95" rx="1.90126" fill="#111111"/>
<rect x="96.2283" y="480.006" width="95" height="95" rx="1.90126" fill="#111111"/>
<rect x="192.229" y="480.006" width="95" height="95" rx="1.90126" fill="#111111"/>
<rect x="288.23" y="480.006" width="95" height="95" rx="1.90126" fill="#111111"/>
<rect x="384.232" y="480.006" width="95" height="95" rx="1.90126" fill="#111111"/>
<rect x="480.233" y="480.006" width="95" height="95" rx="1.90126" fill="#111111"/>
<rect x="576.234" y="480.006" width="95" height="95" rx="1.90126" fill="#111111"/>
<rect x="672.235" y="480.006" width="95" height="95" rx="1.90126" fill="#111111"/>
<rect x="768.236" y="480.006" width="95" height="95" rx="1.90126" fill="#111111"/>
<rect x="864.237" y="480.006" width="95" height="95" rx="1.90126" fill="#111111"/>
<rect x="960.238" y="480.006" width="95" height="95" rx="1.90126" fill="#111111"/>
<rect x="1056.24" y="480.006" width="95" height="95" rx="1.90126" fill="#111111"/>
<rect x="1152.24" y="480.006" width="95" height="95" rx="1.90126" fill="#111111"/>
<rect x="1248.24" y="480.006" width="95" height="95" rx="1.90126" fill="#111111"/>
<rect x="1344.24" y="480.006" width="95" height="95" rx="1.90126" fill="#111111"/>
<rect x="0.227051" y="576.007" width="95" height="95" rx="1.90126" fill="#111111"/>
<rect x="96.2283" y="576.007" width="95" height="95" rx="1.90126" fill="#111111"/>
<rect x="192.229" y="576.007" width="95" height="95" rx="1.90126" fill="#111111"/>
<rect x="288.23" y="576.007" width="95" height="95" rx="1.90126" fill="#111111"/>
<rect x="384.232" y="576.007" width="95" height="95" rx="1.90126" fill="#111111"/>
<rect x="480.233" y="576.007" width="95" height="95" rx="1.90126" fill="#111111"/>
<rect x="576.234" y="576.007" width="95" height="95" rx="1.90126" fill="#111111"/>
<rect x="672.235" y="576.007" width="95" height="95" rx="1.90126" fill="#111111"/>
<rect x="768.236" y="576.007" width="95" height="95" rx="1.90126" fill="#111111"/>
<rect x="864.237" y="576.007" width="95" height="95" rx="1.90126" fill="#111111"/>
<rect x="960.238" y="576.007" width="95" height="95" rx="1.90126" fill="#111111"/>
<rect x="1056.24" y="576.007" width="95" height="95" rx="1.90126" fill="#111111"/>
<rect x="1152.24" y="576.007" width="95" height="95" rx="1.90126" fill="#111111"/>
<rect x="1248.24" y="576.007" width="95" height="95" rx="1.90126" fill="#111111"/>
<rect x="1344.24" y="576.007" width="95" height="95" rx="1.90126" fill="#111111"/>
<rect x="0.227051" y="672.008" width="95" height="95" rx="1.90126" fill="#111111"/>
<rect x="96.2283" y="672.008" width="95" height="95" rx="1.90126" fill="#111111"/>
<rect x="192.229" y="672.008" width="95" height="95" rx="1.90126" fill="#111111"/>
<rect x="288.23" y="672.008" width="95" height="95" rx="1.90126" fill="#111111"/>
<rect x="384.232" y="672.008" width="95" height="95" rx="1.90126" fill="#111111"/>
<rect x="480.233" y="672.008" width="95" height="95" rx="1.90126" fill="#111111"/>
<rect x="576.234" y="672.008" width="95" height="95" rx="1.90126" fill="#111111"/>
<rect x="672.235" y="672.008" width="95" height="95" rx="1.90126" fill="#111111"/>
<rect x="768.236" y="672.008" width="95" height="95" rx="1.90126" fill="#111111"/>
<rect x="864.237" y="672.008" width="95" height="95" rx="1.90126" fill="#111111"/>
<rect x="960.238" y="672.008" width="95" height="95" rx="1.90126" fill="#111111"/>
<rect x="1056.24" y="672.008" width="95" height="95" rx="1.90126" fill="#111111"/>
<rect x="1152.24" y="672.008" width="95" height="95" rx="1.90126" fill="#111111"/>
<rect x="1248.24" y="672.008" width="95" height="95" rx="1.90126" fill="#111111"/>
<rect x="1344.24" y="672.008" width="95" height="95" rx="1.90126" fill="#111111"/>
<rect x="0.227051" y="768.009" width="95" height="95" rx="1.90126" fill="#111111"/>
<rect x="96.2283" y="768.009" width="95" height="95" rx="1.90126" fill="#111111"/>
<rect x="192.229" y="768.009" width="95" height="95" rx="1.90126" fill="#111111"/>
<rect x="288.23" y="768.009" width="95" height="95" rx="1.90126" fill="#111111"/>
<rect x="384.232" y="768.009" width="95" height="95" rx="1.90126" fill="#111111"/>
<rect x="480.233" y="768.009" width="95" height="95" rx="1.90126" fill="#111111"/>
<rect x="576.234" y="768.009" width="95" height="95" rx="1.90126" fill="#111111"/>
<rect x="672.235" y="768.009" width="95" height="95" rx="1.90126" fill="#111111"/>
<rect x="768.236" y="768.009" width="95" height="95" rx="1.90126" fill="#111111"/>
<rect x="864.237" y="768.009" width="95" height="95" rx="1.90126" fill="#111111"/>
<rect x="960.238" y="768.009" width="95" height="95" rx="1.90126" fill="#111111"/>
<rect x="1056.24" y="768.009" width="95" height="95" rx="1.90126" fill="#111111"/>
<rect x="1152.24" y="768.009" width="95" height="95" rx="1.90126" fill="#111111"/>
<rect x="1248.24" y="768.009" width="95" height="95" rx="1.90126" fill="#111111"/>
<rect x="1344.24" y="768.009" width="95" height="95" rx="1.90126" fill="#111111"/>
<rect x="0.227051" y="864.01" width="95" height="95" rx="1.90126" fill="#111111"/>
<rect x="96.2283" y="864.01" width="95" height="95" rx="1.90126" fill="#111111"/>
<rect x="192.229" y="864.01" width="95" height="95" rx="1.90126" fill="#111111"/>
<rect x="288.23" y="864.01" width="95" height="95" rx="1.90126" fill="#111111"/>
<rect x="384.232" y="864.01" width="95" height="95" rx="1.90126" fill="#111111"/>
<rect x="480.233" y="864.01" width="95" height="95" rx="1.90126" fill="#111111"/>
<rect x="576.234" y="864.01" width="95" height="95" rx="1.90126" fill="#111111"/>
<rect x="672.235" y="864.01" width="95" height="95" rx="1.90126" fill="#111111"/>
<rect x="768.236" y="864.01" width="95" height="95" rx="1.90126" fill="#111111"/>
<rect x="864.237" y="864.01" width="95" height="95" rx="1.90126" fill="#111111"/>
<rect x="960.238" y="864.01" width="95" height="95" rx="1.90126" fill="#111111"/>
<rect x="1056.24" y="864.01" width="95" height="95" rx="1.90126" fill="#111111"/>
<rect x="1152.24" y="864.01" width="95" height="95" rx="1.90126" fill="#111111"/>
<rect x="1248.24" y="864.01" width="95" height="95" rx="1.90126" fill="#111111"/>
<rect x="1344.24" y="864.01" width="95" height="95" rx="1.90126" fill="#111111"/>
<rect x="0.227051" y="960.011" width="95" height="95" rx="1.90126" fill="#111111"/>
<rect x="96.2283" y="960.011" width="95" height="95" rx="1.90126" fill="#111111"/>
<rect x="192.229" y="960.011" width="95" height="95" rx="1.90126" fill="#111111"/>
<rect x="288.23" y="960.011" width="95" height="95" rx="1.90126" fill="#111111"/>
<rect x="384.232" y="960.011" width="95" height="95" rx="1.90126" fill="#111111"/>
<rect x="480.233" y="960.011" width="95" height="95" rx="1.90126" fill="#111111"/>
<rect x="576.234" y="960.011" width="95" height="95" rx="1.90126" fill="#111111"/>
<rect x="672.235" y="960.011" width="95" height="95" rx="1.90126" fill="#111111"/>
<rect x="768.236" y="960.011" width="95" height="95" rx="1.90126" fill="#111111"/>
<rect x="864.237" y="960.011" width="95" height="95" rx="1.90126" fill="#111111"/>
<rect x="960.238" y="960.011" width="95" height="95" rx="1.90126" fill="#111111"/>
<rect x="1056.24" y="960.011" width="95" height="95" rx="1.90126" fill="#111111"/>
<rect x="1152.24" y="960.011" width="95" height="95" rx="1.90126" fill="#111111"/>
<rect x="1248.24" y="960.011" width="95" height="95" rx="1.90126" fill="#111111"/>
<rect x="1344.24" y="960.011" width="95" height="95" rx="1.90126" fill="#111111"/>
<rect x="0.227051" y="1056.01" width="95" height="95" rx="1.90126" fill="#111111"/>
<rect x="96.2283" y="1056.01" width="95" height="95" rx="1.90126" fill="#111111"/>
<rect x="192.229" y="1056.01" width="95" height="95" rx="1.90126" fill="#111111"/>
<rect x="288.23" y="1056.01" width="95" height="95" rx="1.90126" fill="#111111"/>
<rect x="384.232" y="1056.01" width="95" height="95" rx="1.90126" fill="#111111"/>
<rect x="480.233" y="1056.01" width="95" height="95" rx="1.90126" fill="#111111"/>
<rect x="576.234" y="1056.01" width="95" height="95" rx="1.90126" fill="#111111"/>
<rect x="672.235" y="1056.01" width="95" height="95" rx="1.90126" fill="#111111"/>
<rect x="768.236" y="1056.01" width="95" height="95" rx="1.90126" fill="#111111"/>
<rect x="864.237" y="1056.01" width="95" height="95" rx="1.90126" fill="#111111"/>
<rect x="960.238" y="1056.01" width="95" height="95" rx="1.90126" fill="#111111"/>
<rect x="1056.24" y="1056.01" width="95" height="95" rx="1.90126" fill="#111111"/>
<rect x="1152.24" y="1056.01" width="95" height="95" rx="1.90126" fill="#111111"/>
<rect x="1248.24" y="1056.01" width="95" height="95" rx="1.90126" fill="#111111"/>
<rect x="1344.24" y="1056.01" width="95" height="95" rx="1.90126" fill="#111111"/>
<rect x="0.227051" y="1152.01" width="95" height="95" rx="1.90126" fill="#111111"/>
<rect x="96.1777" y="1152.01" width="95" height="95" rx="1.90126" fill="#111111"/>
<rect x="192.128" y="1152.01" width="95" height="95" rx="1.90126" fill="#111111"/>
<rect x="288.079" y="1152.01" width="95" height="95" rx="1.90126" fill="#111111"/>
<rect x="384.03" y="1152.01" width="95" height="95" rx="1.90126" fill="#111111"/>
<rect x="479.98" y="1152.01" width="95" height="95" rx="1.90126" fill="#111111"/>
<rect x="575.931" y="1152.01" width="95" height="95" rx="1.90126" fill="#111111"/>
<rect x="671.881" y="1152.01" width="95" height="95" rx="1.90126" fill="#111111"/>
<rect x="767.832" y="1152.01" width="95" height="95" rx="1.90126" fill="#111111"/>
<rect x="863.783" y="1152.01" width="95" height="95" rx="1.90126" fill="#111111"/>
<rect x="959.733" y="1152.01" width="95" height="95" rx="1.90126" fill="#111111"/>
<rect x="1055.68" y="1152.01" width="95" height="95" rx="1.90126" fill="#111111"/>
<rect x="1151.63" y="1152.01" width="95" height="95" rx="1.90126" fill="#111111"/>
<rect x="1247.59" y="1152.01" width="95" height="95" rx="1.90126" fill="#111111"/>
<rect x="1343.54" y="1152.01" width="95" height="95" rx="1.90126" fill="#111111"/>
<rect x="0.227051" y="1248.01" width="95" height="95" rx="1.90126" fill="#111111"/>
<rect x="96.1777" y="1248.01" width="95" height="95" rx="1.90126" fill="#111111"/>
<rect x="192.128" y="1248.01" width="95" height="95" rx="1.90126" fill="#111111"/>
<rect x="288.079" y="1248.01" width="95" height="95" rx="1.90126" fill="#111111"/>
<rect x="384.03" y="1248.01" width="95" height="95" rx="1.90126" fill="#111111"/>
<rect x="479.98" y="1248.01" width="95" height="95" rx="1.90126" fill="#111111"/>
<rect x="575.931" y="1248.01" width="95" height="95" rx="1.90126" fill="#111111"/>
<rect x="671.881" y="1248.01" width="95" height="95" rx="1.90126" fill="#111111"/>
<rect x="767.832" y="1248.01" width="95" height="95" rx="1.90126" fill="#111111"/>
<rect x="863.783" y="1248.01" width="95" height="95" rx="1.90126" fill="#111111"/>
<rect x="959.733" y="1248.01" width="95" height="95" rx="1.90126" fill="#111111"/>
<rect x="1055.68" y="1248.01" width="95" height="95" rx="1.90126" fill="#111111"/>
<rect x="1151.63" y="1248.01" width="95" height="95" rx="1.90126" fill="#111111"/>
<rect x="1247.59" y="1248.01" width="95" height="95" rx="1.90126" fill="#111111"/>
<rect x="1343.54" y="1248.01" width="95" height="95" rx="1.90126" fill="#111111"/>
</g>
<defs>
<linearGradient id="paint0_linear_432_9109" x1="720" y1="0" x2="720" y2="1344" gradientUnits="userSpaceOnUse">
<stop stop-color="#983294" stop-opacity="0"/>
<stop offset="0.494202" stop-color="#983294"/>
<stop offset="1" stop-color="#983294" stop-opacity="0"/>
</linearGradient>
</defs>
</svg>
