<svg width="546" height="59" viewBox="0 0 546 59" fill="none" xmlns="http://www.w3.org/2000/svg">
<path d="M522.154 20.3172C522.148 20.2798 522.114 20.2538 522.076 20.2591L447.706 30.7713C447.668 30.7766 447.642 30.8112 447.647 30.8485C447.653 30.8859 447.687 30.9119 447.725 30.9066L522.096 20.3944C522.133 20.3891 522.159 20.3545 522.154 20.3172Z" fill="white" stroke="#7A7A7A"/>
<rect x="-0.481136" y="0.481136" width="447.457" height="0.962272" rx="0.481136" transform="matrix(-1 0 0 1 447.457 30.0163)" fill="white" stroke="#7A7A7A" stroke-width="0.962272"/>
<g filter="url(#filter0_ddd_1032_10760)">
<circle cx="3.40992" cy="3.40992" r="3.40992" transform="matrix(0.866025 -0.5 -0.5 -0.866025 522.941 24.3161)" fill="#B8B8B8"/>
<circle cx="3.40992" cy="3.40992" r="2.40992" transform="matrix(0.866025 -0.5 -0.5 -0.866025 522.941 24.3161)" stroke="#7A7A7A" stroke-width="2"/>
</g>
<defs>
<filter id="filter0_ddd_1032_10760" x="492.779" y="0.247559" width="52.821" height="57.821" filterUnits="userSpaceOnUse" color-interpolation-filters="sRGB">
<feFlood flood-opacity="0" result="BackgroundImageFix"/>
<feColorMatrix in="SourceAlpha" type="matrix" values="0 0 0 0 0 0 0 0 0 0 0 0 0 0 0 0 0 0 127 0" result="hardAlpha"/>
<feOffset dy="19"/>
<feGaussianBlur stdDeviation="8"/>
<feColorMatrix type="matrix" values="0 0 0 0 0 0 0 0 0 0 0 0 0 0 0 0 0 0 0.09 0"/>
<feBlend mode="normal" in2="BackgroundImageFix" result="effect1_dropShadow_1032_10760"/>
<feColorMatrix in="SourceAlpha" type="matrix" values="0 0 0 0 0 0 0 0 0 0 0 0 0 0 0 0 0 0 127 0" result="hardAlpha"/>
<feOffset dx="-3" dy="2"/>
<feGaussianBlur stdDeviation="9"/>
<feColorMatrix type="matrix" values="0 0 0 0 0 0 0 0 0 0 0 0 0 0 0 0 0 0 0.37 0"/>
<feBlend mode="normal" in2="effect1_dropShadow_1032_10760" result="effect2_dropShadow_1032_10760"/>
<feColorMatrix in="SourceAlpha" type="matrix" values="0 0 0 0 0 0 0 0 0 0 0 0 0 0 0 0 0 0 127 0" result="hardAlpha"/>
<feOffset dx="-5" dy="8"/>
<feGaussianBlur stdDeviation="11.5"/>
<feColorMatrix type="matrix" values="0 0 0 0 0 0 0 0 0 0 0 0 0 0 0 0 0 0 0.25 0"/>
<feBlend mode="normal" in2="effect2_dropShadow_1032_10760" result="effect3_dropShadow_1032_10760"/>
<feBlend mode="normal" in="SourceGraphic" in2="effect3_dropShadow_1032_10760" result="shape"/>
</filter>
</defs>
</svg>
