<svg width="359" height="217" viewBox="0 0 359 217" fill="none" xmlns="http://www.w3.org/2000/svg">
<path fill-rule="evenodd" clip-rule="evenodd" d="M142.05 0.0204251C148.867 0.645027 152.246 1.87546 156.962 5.68313V5.64841L339.8 186.61C339.802 186.611 339.803 186.614 339.802 186.616C339.802 186.618 339.801 186.619 339.8 186.62C339.797 186.623 339.797 186.628 339.8 186.631L355.546 202.376C360.585 207.416 357.016 216.033 349.889 216.033H8.66472C1.6612 216.033 -1.96156 207.671 2.82843 202.561L16.2537 188.241C17.7661 186.628 19.8787 185.712 22.09 185.712H73.151C77.5693 185.712 81.151 182.131 81.151 177.712V38.3407C81.151 33.9224 77.5693 30.3407 73.151 30.3407H22.0886C19.8773 30.3407 17.7647 29.4255 16.2523 27.8122L2.82703 13.492C-1.96297 8.38263 1.65981 0.0204251 8.66332 0.0204251H142.05ZM212.271 0C205.144 0 201.575 8.61714 206.615 13.6569L220.935 27.9771C222.435 29.4774 224.47 30.3203 226.592 30.3203H350.728C357.732 30.3203 361.355 21.9581 356.565 16.8488L343.14 2.52847C341.627 0.915265 339.514 0 337.303 0H212.271ZM135.997 30.3407C138.119 30.3407 140.154 31.1836 141.654 32.6839L281.026 172.056C286.066 177.095 282.496 185.713 275.369 185.713L119.471 185.712C115.053 185.712 111.471 182.131 111.471 177.712L111.471 38.3407C111.471 33.9224 115.053 30.3407 119.471 30.3407H135.997Z" fill="white"/>
</svg>
