<svg width="30" height="32" viewBox="0 0 30 32" fill="none" xmlns="http://www.w3.org/2000/svg">
<path d="M15.7213 17.9592L14.8768 25.6535L13.7784 31.4877L10.9231 30.9677L11.9305 25.1661L13.8482 17.6017L6.75924 20.7505L1.20512 22.735L0.196629 19.9124L5.75076 17.928L13.2301 15.8717L6.95311 11.2352L2.49738 7.38545L4.37674 5.17385L8.92352 8.99108L14.4851 14.4992L15.2971 6.71385L16.3955 0.879648L19.2508 1.39959L18.2435 7.20126L16.3258 14.7656L23.4147 11.6168L28.9688 9.63233L29.9773 12.4549L24.4232 14.4394L16.9439 16.4956L23.2208 21.1321L27.6766 24.9819L25.7972 27.1935L21.2504 23.3762L15.7213 17.9592Z" fill="#E0E0E0"/>
</svg>
